<?xml version="1.0" encoding="UTF-8"?>
<svg width="2536" height="2650.7" version="1.1" viewBox="0 0 2536 2650.7" xml:space="preserve" xmlns="http://www.w3.org/2000/svg" xmlns:cc="http://creativecommons.org/ns#" xmlns:dc="http://purl.org/dc/elements/1.1/" xmlns:rdf="http://www.w3.org/1999/02/22-rdf-syntax-ns#"><metadata><rdf:RDF><cc:Work rdf:about=""><dc:format>image/svg+xml</dc:format><dc:type rdf:resource="http://purl.org/dc/dcmitype/StillImage"/></cc:Work></rdf:RDF></metadata><g transform="translate(-375.58 -345.32)"><g fill="#4d4d4d" stroke="#fdffff"><g transform="matrix(.17058 0 0 -.17058 5.8899 3275.7)" stroke-width="586.24"><path d="m15015 6188.5c-20.1 0-40.2 5.08-58.1 14.78-59.4 32.12-81.6 106.61-49.4 166.02l3.2 5.86c17.9 32.83 37.4 86.69 52.1 144.29 13.1 53.32 23.5 110.06 31 168.84 13.7 112.95 15.7 230.28 6 348.94-19.7 238.95-90.5 465.94-204.7 656.35-59.8 99.82-130.7 190.96-210.6 270.85-78.1 76.6-169.4 148.43-271.7 213.71-197.5 119.36-418.4 206.12-657.2 258.26-2364.9 555.94-6433.5-2213.7-8654.9 476.03-308.29 376.05-530.45 844.34-660.42 1391.7-58.42 247.3-98.53 501.9-119.17 756.8-24.32 251.3-31.48 508.3-21.33 764.4 17.26 525.3 117.34 1030.8 297.48 1502.5 180.95 475.3 449.15 916.2 797.12 1310.5 315.89 358.3 709.24 689.2 1169.1 983.5 106.88 68 216.38 134.4 325.39 197.2 119.92 67.8 233.29 124.9 346.37 174.7 237.32 103.3 485.88 181.2 738.64 231.4 249.51 49.7 508.78 74.9 770.64 74.9 253.02 0 510.5-23.5 765.32-69.8 260.06-47.3 509.64-117.9 741.78-209.9 132.7-51.3 248.6-102.5 354.4-156.7 63.7-32.8 120.3-64.9 173-98.1 28.1-18.1 56.4-37 84.8-58.4 13.5-9.9 27-20.7 40.5-31.9l7.7-6.5 10.1-0.5c106.1-5.7 201-20.1 290.2-44 132.1-36.2 244.1-94.2 332.5-172.2 90.2-78 164.7-189.8 210.1-315 19-51.1 33.3-102.4 45.9-147.6l4.4-15.6c13.3-47.6 18.8-55.7 20.9-58.8 2.4-6.1 12.8-20.1 25.5-33.2 46.2-48.7 122.9-101.1 204.2-156.7l30.3-20.7c82.4-56.2 178.7-123.8 268.6-199.6 191.5-159.4 338.9-349.4 426.4-549.6 100.7-228.2 125.3-480.7 69.5-711.1-54.4-231.9-199.8-449.1-399.2-596-172.2-130.6-380.6-221.6-637.5-278.3-143.3-30.1-297.3-45.4-457.6-45.4-71.5 0-146.1 3-221.7 9-197.5 14.6-405.8 47.1-655.5 102.3-102.2 23.1-206.3 48.7-317.9 78.1l-156.59 42.2c-49.63 13.5-97.55 24.5-146.64 33.7-98.18 18.3-198.54 28.5-298.36 30.3l-32.67 0.3c-39.16 0-78.25-1.3-117.33-3.8-52.68-3.5-108.81-6.8-163.13-9-92-3.8-182.91-5.8-270.38-5.8-132.96 0-263.96 4.5-389.34 13.5-117.25 8.5-225.51 20.5-330.88 36.8-117.95 19.1-230.27 45.8-333.77 79.3-225.64 72.2-434.31 189.3-603.53 338.8l167.46 190.6c146.33-127.3 319.8-222.8 515.57-284 90.44-28.6 189.08-51.3 293.12-67.5 97.32-14.4 201.59-25.3 310.24-32.4 107.24-7 219.34-10.5 333.14-10.5 95.68 0 195.34 2.5 296.1 7.4l158.2 9.4c43.15 2.7 86.77 4 129.84 4 14.22 0 28.37-0.1 42.6-0.4 114.36-2.3 229.57-14.3 342.29-35.6 55.03-10.4 111.31-23.5 167.43-38.8l154.53-42c107.9-28.8 208.5-53.8 308-76.5 237.1-53 433.2-84.2 617.6-98.2 71.9-6.1 143.2-9.2 211.6-9.2 138.7 0 270.6 12.7 392 37.6 217.3 46.6 398.1 123.7 537.7 229.3 154.7 113.9 263.9 274.1 307.2 451.1 43.9 176 25.1 371.3-52.7 549.9-72.9 167.8-192.8 322.8-356.4 460.7-81.7 69.4-171.2 132.9-248.1 185.8l-28.6 19.9c-34.5 23.8-69.8 48.1-106.1 74.7l-5.4 4.1c-43.7 32.8-88.8 66.7-134.9 116-29.4 31.6-49.9 60.6-66.6 94.2-16.5 33.9-23.7 58.9-30.8 83l-6.5 22.7c-14.2 50.7-26.4 94.5-41.8 136-34 91.6-80.5 162.5-142.3 216.5-137.4 123-356 153.6-517.8 157.4l-105.7 50.9-11.5 10.2c-10.5 8.7-20.5 16.8-31.7 25-21 15.9-44.8 31.8-68.9 47.4-45.8 28.9-97.4 58-153.2 86.7-98.1 50.4-206.3 98.2-330.9 146.2-220.13 87.1-448.37 151.7-697.49 197.4-239.97 43.7-482.67 65.9-721.31 65.9-246.22 0-489.24-23.6-722.49-70.2-235.47-46.7-467.14-119.2-688.56-215.6-104.52-46-209.9-99.2-322.23-162.5-105.74-61-211.84-125.2-315.54-191.2-440.75-282.1-816.73-598.2-1117.6-939.3-328.47-372.4-581.51-788.4-752.1-1236.2-170.42-446.7-265.12-925.9-281.4-1424.4-9.74-245.5-2.83-492.1 20.53-732.6 19.56-243 57.73-486 113.39-721.7 1350.8-4514.2 6180.4-1045.3 9132.1-1686.1 265.3-58.24 511.3-155.47 731.5-288.98 118.2-75.12 224.5-158.83 315.4-248.41 94.4-94.11 177.9-201.51 248.1-318.76 133.2-222.46 215.7-485.72 238.4-761.41 11.1-135.47 8.7-269.76-7.1-399.2-8.6-69.41-20.6-134.75-36.6-199.48-19.4-71.6-37.6-132.64-77.4-206.28-21.4-39.63-62.8-64.25-107.9-64.25" fill="#4d4d4d" stroke="#fdffff" stroke-width="586.24"/></g><g transform="matrix(.14546 0 0 -.14546 5.8899 3275.7)" stroke-width="687.46"><path d="m15687 9993.8c-15.8 0-31.7 2.66-47.1 7.95-74.8 26-114.5 108-88.6 182.9 17.3 50.7 414.3 1247.9-474.3 2088.2-414 391.3-1043.5 589.7-1871.1 589.7-734.9 0-1459.7-151.7-1939.3-252-69.7-14.7-133.2-27.9-189.3-39.2-457.1-91.4-880.4-137.7-1258.4-137.7h-0.19c-937.87 0-1427.1 277-1672.4 509.3-318.5 301.8-487.29 754.6-463.12 1242.3 26.51 534.7 276.19 1035.2 667.9 1338.8 25.44 19.7 55.85 30.1 87.91 30.1 44.82 0 86.26-20.3 113.64-55.7 48.56-62.6 37.08-153-25.53-201.6-326.32-252.9-534.5-673.8-556.92-1125.9-20.02-403.8 116.21-775.3 373.74-1019.3 302.27-286.4 791.24-431.6 1453.3-431.6 461.58 0 920.18 72.4 1223.7 133.1 55.5 11.1 118 24.2 186.7 38.6 491 102.7 1232.8 258 1995.3 258 905.7 0 1602.6-224.8 2071.5-668.1 1025.4-969.6 568.4-2333.6 548.4-2391.2-20.1-57.8-74.5-96.65-135.8-96.65" fill="#4d4d4d" stroke="#fdffff" stroke-width="687.46"/></g><g transform="matrix(.14186 0 0 -.14186 5.8899 3275.7)" stroke-width="704.91"><path d="m4609 8000.6c-95.56 158.19-173.37 322.2-231.13 487.52-56.26 160.82-96 337.51-118.15 525.21-48.16 364.86-43.53 719.85 13.66 1055.7 59.85 363.8 206.1 706 423.05 989.7 243.76 306.8 554.24 520.5 897.45 617.3 13.13 3.7 26.62 5.6 40.1 5.6 65.57 0 123.8-44.2 141.64-107.4 21.76-77.1-22.98-158.4-99.74-181.1-147.62-43.9-288.57-113.1-410.46-201.1-118.98-85.2-230.12-192.5-330.19-318.6-184.56-246.9-307.67-543.4-356.7-858.4-49.45-305.27-50.74-629.06-3.84-962.06 21.22-167.11 56.1-317.49 106.57-459.32 54.21-149.44 122.47-292.4 202.97-424.92" fill="#4d4d4d" stroke="#fdffff" stroke-width="704.91"/></g><g transform="matrix(.17002 0 0 -.17002 5.8899 3275.7)" stroke-width="588.17"><path d="m13466 2653.3c-1555.4-0.07-3153 721.02-4219.4 1263.5l111.44 219.19c1643.9-836.14 2988.7-1242.6 4111.4-1242.6 406.6 0 773.4 52.31 1154.4 164.61 728.6 214.65 1208.4 704.79 1316.3 1344.7 101.4 602.52-156.8 1206.2-674 1575.7-343.8 245.54-809.8 370.08-1384.9 370.08l-1.8 245.38c629.1 0 1143.7-139.83 1529.6-415.41 594.3-424.49 890.7-1120.6 773.5-1816.6-122.2-725.32-678.9-1300.9-1489.3-1539.7-380.2-111.99-793.1-168.77-1227.2-168.77" fill="#4d4d4d" stroke="#fdffff" stroke-width="588.17"/></g><path d="m1237.9 2846c-32.037 0-65.011-1.0266-97.993-3.0666-283.12-17.48-504.31-137.4-577.24-312.99-80.968-194.91-16.696-370.11 84.879-435.99 3.3987-2.2134 7.3227-3.3734 11.348-3.3734 7.128 0 13.691 3.56 17.557 9.52 6.272 9.68 3.5053 22.64-6.1573 28.92-112.88 73.213-123.74 253.19-69.032 384.88 66.767 160.73 274.15 270.83 541.22 287.31 31.88 1.96 63.735 2.96 94.676 2.96 175.39 0 304.93-31.653 409.01-57.093 79.64-19.44 148.39-36.227 219.08-36.227 24.16 0 46.96 1.96 69.707 5.9866 11.347 2 18.933 12.88 16.933 24.227-1.7733 10-10.453 17.24-20.627 17.24-1.1866 0-2.4-0.093-3.6266-0.3067-20.467-3.6266-41-5.4-62.787-5.4-65.067 0-131.63 16.267-208.71 35.08-106.37 25.987-238.71 58.32-418.23 58.32" stroke-width="100"/></g><g transform="matrix(.17196 0 0 -.17196 5.8899 3275.7)"><path d="m15165 6009.7c-126.7 90.56-264.1 162.44-409.2 218.65l140.7 34.97c179.1 313.25 378.2 1922.3-1461.9 2252.6-72.5 12.95-145 23.03-217.5 31.71l53.4 27.92s387.8 1118.9-432.7 1894.6c-944.3 892.8-2819.5 417.7-3490.8 283.4-671.25-134.2-1805-253.6-2371.9 283.5-446.67 423.1-686.79 1091.8 155.4 2134.4 212.22-233.7 528.91-425 978.39-493.4 403.36-61.4 827.41-50.6 1108.4-31.3 215.1 14.8 430.34-6.7 638.37-63.4 406.66-110.9 1140.7-314.4 1729.1-188.8 943.6 201.4 1157 872.6 910 1387.4-264.8 552-977.1 969.7-977.1 969.7s-7.5 686.2-842.8 671.3c0 0-149.2 179-775.81 402.8-626.58 223.7-1909.5 447.5-3102.9-238.7-1051.4-604.6-2789.7-1879.7-2476.4-4729 59.69-542.9 189.07-990.79 367.7-1360.3l-39.51 17.68c-477.37-134.22-1193.4-701.1-999.5-2103.4 34.36-248.44 116.28-476.24 232.83-682.57l-83.66 41.1c-551.96-357.99-888.62-1325-447.53-2386.8 402.78-969.69 1639.6-1645.9 3252.1-1745.4 2390.4-147.55 3394.5 682.1 4556.6 498.03 1135.7-381.1 2280-540.36 3335-229.51 1670.8 492.29 1806.5 2292.1 671.3 3102.9" fill="#c6a67d"/></g><g transform="matrix(.14653 0 0 -.14653 5.8899 3275.7)"><path d="m14360 15418c-1017.6-678.4-2189.3-271-3216 33.9-1089.7 244.2-2258.5-470.6-3093.2 848 37.86-302.9 118.1-626.8 252.26-924.8 21.16 27.4 42.23 54.7 64.69 82.5 249.05-274.2 620.71-498.8 1148.2-579.1 473.36-72 970.98-59.3 1300.8-36.7 252.4 17.4 505-7.8 749.2-74.4 477.2-130.1 1338.6-368.9 2029.2-221.5 553.7 118.2 893.1 374.2 1057.9 676.2-135.1 102.1-293 247.6-293 195.9" fill="#e9cdab"/></g><g transform="matrix(.15906 0 0 -.15906 5.8899 3275.7)"><path d="m15376 6156.6c-2.8-55.41 3.2-140.66-70-247.96-95.3-139.9-93.7-139.4-197.1-165.3-97.6-24.48-257.2 57.75-340.9 101.68-140.1 73.51-284.1 110.73-436.8 146.44-160.6 37.47-361.7 60.52-287.3 283.33 73.1 219.04 362.7 474.12 604.1 406.13 286.3-80.72 743.7-203.77 728-524.32zm-114.6 687.2c-314.2 102.01-2298.2-120.96-2878.8-290.29-580.6-169.41 532.3-447.54 532.3-447.54s-431.5-501.62-943.6-556.44c-338.6-36.29-677.3 483.84-919.2 931.38-126.7 234.3-2201.4-120.95-2201.4-120.95 266.07-278.22 599.69-360.03 1185.3-169.33 520.2 169.33 375-338.74 1197.5-1004 822.5-665.23 1568.7-72.25 2141 338.66 462.8 332.45 996.4-137.81 1365.6-322.39 661.3-330.61 922-292.47 1227.1 387.77 332.6 741.52-273.4 1112.6-705.8 1253.1" fill="#926f4a"/></g><path d="m621.04 2146.7c-26.936 88.507-3.848 184.71 28.86 232.8 32.707 48.107 80.805 28.867 138.52-23.08 57.72-51.96 61.567-38.48 65.415 1.92s47.503 204.04 130.43 228.31c78.853 23.08 202.26-36.4 294.77-155.2l-96.199-55.787s-86.577 90.413-148.15 96.187c-61.565 5.7734-84.653-134.67-84.653-134.67l-150.07-76.96s-40.403 38.48-80.807 32.707c-40.403-5.7733-30.783-57.72-28.859-117.36-20.427-59.293-44.064-58.667-69.263-28.867" fill="#926f4a"/><path d="m1150.1 1155.9c-50.023-30.787-119.28 3.8533-161.61 92.347-42.327 88.507-7.696 165.47 57.72 150.08 65.415-15.4 96.197-40.413 111.59-25.013 15.392 15.387-21.163 76.96 32.708 186.63 38.725 78.827 109.67 123.13 240.49 53.867 100.03-52.947 105.83-105.81 182.79-121.21 76.947-15.387 82.347 33.293 171.23 90.427 107.75 69.267 203.93 57.72 288.6-73.107 84.653-130.83-39.667-100.35-39.667-100.35-36.547 51.947-100.79 165.76-202.76 84.947-48.76-38.64-100.11-71.867-159.69-75.027-96.84-5.1333-203.93 38.48-203.93 38.48s-63.587 106.57-155.84 94.267c-57.719-7.6933-69.261-111.59-69.261-111.59s-38.48-100.04-80.807-123.13c-42.328-23.08-92.351 19.24-107.74-15.387-15.391-34.64 38.479-92.36 69.263-84.653 30.784 7.6934 26.935-61.573 26.935-61.573" fill="#926f4a"/><g transform="matrix(.14701 0 0 -.14701 5.8899 3275.7)"><path d="m4668.8 10585c-327.2-693.69-130.69-1204.2 209.41-1400.4 340.28-196.27 1047 444.98 1334.9 287.97 287.92-157.09 248.66-968.58 615.12-1583.6 366.45-615.13 1210.8-295.14 1779.9 248.61 588.94 562.79 955.36 549.73 1505.1-13.06 549.6-562.79 1192.6-730.23 1753.8 196.27 562.7 929.22 955.3 1099.4 1583.6 562.79 605.3-517.08 1217.1-1020.8 1832.2-510.36 615.1 510.36 1017.1 1404.2 1017.1 1404.2l-729.1 220.13s-458.2-930.76-772.3-996.16c-314-65.48-706.7 248.61-1073.1 680.52-366.4 431.92-1950.1-170.15-1950.1-170.15s-431.9-1007.8-811.4-1047c-379.5-39.27-719.8 392.64-1020.9 615.13-301.03 222.48-1387.3 39.27-1387.3 39.27s-510.43-706.82-968.49-732.94c-458.08-26.21-418.81 654.39-575.87 1060.1-157.04 405.7-955.39 706.77-955.39 706.77s-615.13-405.74-850.7-248.73c-326.87 217.93-26.18 1073.2-26.18 1073.2l-510.42-392.6" fill="#926f4a"/></g><g transform="matrix(.15547 0 0 -.15547 5.8899 3275.7)"><path d="m7719.4 14806c4.76-7.9 9.73-15.7 14.96-23.2 66.44 344.2 535.27 560.2 841.69 647.4 446.97 127.2 928.27 111.8 1382.7 36.2 1039.5-173.3 668.22 495 24.78 693-396.48 122-891.16 140.3-1290 30.9-222.21-61-439.9-146.7-635.49-269.5-158.03-99.3-402.51-272.5-465.71-459.2-49.24-145.4-18.46-158.1 16.17-311.5 25.72-113.8 49.51-242.3 110.83-344.1" fill="#926f4a"/></g><g transform="matrix(.15188 0 0 -.15188 5.8899 3275.7)"><path d="m5306.8 10753-44.72 20c-16.9-4.7-34.05-9.9-51.43-15.7 418.93-588.1 916.27-1097.8 1574.7-1446.3 2094.4-981.73 4319.6 0 6413.9 392.67-319.9 191.11-1333.2 22.21-2025.7-79.18-2009.9-371.52-4025.6-548.06-5252.8 1165.5-895.17 1249.8-945.84 3817.1 86.43 5509.8-749.3-871.4-1321.9-2140.3-1116.7-4006.6 67.58-614.7 214.07-1121.8 416.3-1540.2" fill="#e9cdab"/></g><path d="m1135.9 2328.7c5.704 2.6934 11.372 5.5067 17.059 8.2667 30.533-4.2533 60.684-10.627 90.609-18.24-30.335 4.96-73.651 16.773-107.67 9.9733" fill="#e9cdab"/><path d="m1387.4 2191c-130.97 28.627-246.19 61.667-338.62 53.867-212.92-17.947-348.88-143.65-413.01-330.92 0.77733 17.307-5.204 68.147-2.5653 87.227 5.908 42.72 19.995 81.893 40.037 117.37l-14.385-7.0667c-2.4613 1.5867-4.8813 3.3067-7.292 5.04 87.119 115.28 202.85 203.12 355.05 222.15 50.016 6.52 98.604 4.96 146.29-1.6667-5.6867-2.76-11.355-5.5733-17.059-8.2667 34.017 6.8 77.333-5.0133 107.67-9.9733 136.97-34.84 269.03-96.573 409.24-109.32-90.907-38.96-185.83-28.387-265.35-18.44" fill="#e9cdab"/><g transform="matrix(.15152 0 0 -.15152 5.8899 3275.7)"><path d="m8168.4 6316c-197.51-50.25-396.5-92.31-598.02-120.38 1205.2-583.79 2531.3-1486 3740.2-2058.6-1948.4-528-3864.2-675.75-5155.4-304.74-2209.5 634.92-2442 1656.1-2582.6 2184.2 8.31-326.83 78.82-679.18 229.27-1041.4 457.12-1100.5 1860.9-1868 3690.9-1980.9 2713-167.47 3852.5 774.13 5171.3 565.22 1235.9-414.65 2480.2-596.55 3636-300.08-175.9 17.96-344.7 56.59-510.8 59.4-1820.5 30.98-3076.2 728.9-4165.4 1283.8-513.1 261.44-1010.1 545.68-1552 840.83-557.45 303.69-1123 665.99-1903.4 872.52-41.41 20.68 92.31 15.05 0 0" fill="#e9cdab"/></g><g transform="matrix(.15647 0 0 -.15647 5.8899 3275.7)"><path d="m10764 15704c32.4-338-162.3-638.7-482.3-669.4-319.93-30.7-600.11 241.2-632.58 579.2-32.38 338 155.51 625.1 475.48 655.8 320 30.7 607-227.6 639.4-565.6" fill="#351905"/></g><g transform="matrix(.15436 0 0 -.15436 5.8899 3275.7)"><path d="m10687 15888c22.4-232.8-101.4-438.9-306.7-458.6s-386.43 168.7-408.8 401.5 97.1 429.6 302.4 449.3 390.8-159.4 413.1-392.2" fill="#5e422c"/></g><g transform="matrix(.15365 0 0 -.15365 5.8899 3275.7)"><path d="m10488 15751c-4 58.5-10.3 117.3-7.3 174.8 3.3 66.6 6.8 134.6 11.2 201.7 1.7 27.1 5.8 64.5-2.4 90.5-16.1 51.8-56.6 81.8-109.6 73.3-61.8-9.9-92.1-88.2-108.6-142.2-14.7-48.2-22.5-97.1-23.7-147.7-3.7-141.6 12.1-320.3 146.3-396.9 24.2-13.8 56.6-22.2 77.7-3.6 16.6 14.8 18.9 40.3 19.3 63 0.5 28.9-0.9 58-2.9 87.1" fill="#351905"/></g><g transform="matrix(.15549 0 0 -.15549 5.8899 3275.7)"><path d="m10338 16161c26.9-101.8-53.8-229.8-180.3-285.9s-251.02-19.1-277.95 82.6c-27.01 101.8 53.68 229.8 180.25 285.9 126.6 56.1 251 19.1 278-82.6" fill="#fffffe"/></g><g transform="matrix(.17058 0 0 -.17058 5.8899 3275.7)"><path d="m15015 6188.5c-20.1 0-40.2 5.08-58.1 14.78-59.4 32.12-81.6 106.61-49.4 166.02l3.2 5.86c17.9 32.83 37.4 86.69 52.1 144.29 13.1 53.32 23.5 110.06 31 168.84 13.7 112.95 15.7 230.28 6 348.94-19.7 238.95-90.5 465.94-204.7 656.35-59.8 99.82-130.7 190.96-210.6 270.85-78.1 76.6-169.4 148.43-271.7 213.71-197.5 119.36-418.4 206.12-657.2 258.26-261 57.99-544.4 87.46-842.2 87.46-193.5 0-397.8-12.43-607-36.97-502.7-58.39-1014.6-177.44-1454.7-284.37-82.9-20.16-165.7-40.57-248.8-61.05-396.4-97.47-806.29-198.38-1218.8-274.44-272.02-50.18-518.48-84.57-753.36-105.29-171.89-15.55-354.8-23.37-543.8-23.37-73.24 0-146.33 1.18-219.37 3.29-572.68 18.37-1065.6 109.27-1507 277.88-247.59 94.11-479.1 215.97-688.03 361.98-213.25 148.83-405.68 327.44-571.94 530.91-308.29 376.05-530.45 844.34-660.42 1391.7-58.42 247.3-98.53 501.9-119.17 756.8-24.32 251.3-31.48 508.3-21.33 764.4 17.26 525.3 117.34 1030.8 297.48 1502.5 180.95 475.3 449.15 916.2 797.12 1310.5 315.89 358.3 709.24 689.2 1169.1 983.5 106.88 68 216.38 134.4 325.39 197.2 119.92 67.8 233.29 124.9 346.37 174.7 237.32 103.3 485.88 181.2 738.64 231.4 249.51 49.7 508.78 74.9 770.64 74.9 253.02 0 510.5-23.5 765.32-69.8 260.06-47.3 509.64-117.9 741.78-209.9 132.7-51.3 248.6-102.5 354.4-156.7 63.7-32.8 120.3-64.9 173-98.1 28.1-18.1 56.4-37 84.8-58.4 13.5-9.9 27-20.7 40.5-31.9l7.7-6.5 10.1-0.5c106.1-5.7 201-20.1 290.2-44 132.1-36.2 244.1-94.2 332.5-172.2 90.2-78 164.7-189.8 210.1-315 19-51.1 33.3-102.4 45.9-147.6l4.4-15.6c13.3-47.6 18.8-55.7 20.9-58.8 2.4-6.1 12.8-20.1 25.5-33.2 46.2-48.7 122.9-101.1 204.2-156.7l30.3-20.7c82.4-56.2 178.7-123.8 268.6-199.6 191.5-159.4 338.9-349.4 426.4-549.6 100.7-228.2 125.3-480.7 69.5-711.1-54.4-231.9-199.8-449.1-399.2-596-172.2-130.6-380.6-221.6-637.5-278.3-143.3-30.1-297.3-45.4-457.6-45.4-71.5 0-146.1 3-221.7 9-197.5 14.6-405.8 47.1-655.5 102.3-102.2 23.1-206.3 48.7-317.9 78.1l-156.59 42.2c-49.63 13.5-97.55 24.5-146.64 33.7-98.18 18.3-198.54 28.5-298.36 30.3l-32.67 0.3c-39.16 0-78.25-1.3-117.33-3.8-52.68-3.5-108.81-6.8-163.13-9-92-3.8-182.91-5.8-270.38-5.8-132.96 0-263.96 4.5-389.34 13.5-117.25 8.5-225.51 20.5-330.88 36.8-117.95 19.1-230.27 45.8-333.77 79.3-225.64 72.2-434.31 189.3-603.53 338.8-168.14 148.9-281.48 316.9-367.45 544.9-76.99 204.8-93.36 451.6-46.01 694.7 7.52 38.6 42.33 66.8 54.81 66.8 25.57-7.4 45.79-38.2 45.19-70.1l-0.15-7.2c-1.85-103.5 9.12-202 32.64-292.9 21.41-92.5 54.32-186.6 97.63-278.8 83.01-177.1 204.31-338.5 350.8-466.8 146.33-127.3 319.8-222.8 515.57-284 90.44-28.6 189.08-51.3 293.12-67.5 97.32-14.4 201.59-25.3 310.24-32.4 107.24-7 219.34-10.5 333.14-10.5 95.68 0 195.34 2.5 296.1 7.4l158.2 9.4c43.15 2.7 86.77 4 129.84 4 14.22 0 28.37-0.1 42.6-0.4 114.36-2.3 229.57-14.3 342.29-35.6 55.03-10.4 111.31-23.5 167.43-38.8l154.53-42c107.9-28.8 208.5-53.8 308-76.5 237.1-53 433.2-84.2 617.6-98.2 71.9-6.1 143.2-9.2 211.6-9.2 138.7 0 270.6 12.7 392 37.6 217.3 46.6 398.1 123.7 537.7 229.3 154.7 113.9 263.9 274.1 307.2 451.1 43.9 176 25.1 371.3-52.7 549.9-72.9 167.8-192.8 322.8-356.4 460.7-81.7 69.4-171.2 132.9-248.1 185.8l-28.6 19.9c-34.5 23.8-69.8 48.1-106.1 74.7l-5.4 4.1c-43.7 32.8-88.8 66.7-134.9 116-29.4 31.6-49.9 60.6-66.6 94.2-16.5 33.9-23.7 58.9-30.8 83l-6.5 22.7c-14.2 50.7-26.4 94.5-41.8 136-34 91.6-80.5 162.5-142.3 216.5-137.4 123-356 153.6-517.8 157.4l-105.7 50.9-11.5 10.2c-10.5 8.7-20.5 16.8-31.7 25-21 15.9-44.8 31.8-68.9 47.4-45.8 28.9-97.4 58-153.2 86.7-98.1 50.4-206.3 98.2-330.9 146.2-220.13 87.1-448.37 151.7-697.49 197.4-239.97 43.7-482.67 65.9-721.31 65.9-246.22 0-489.24-23.6-722.49-70.2-235.47-46.7-467.14-119.2-688.56-215.6-104.52-46-209.9-99.2-322.23-162.5-105.74-61-211.84-125.2-315.54-191.2-440.75-282.1-816.73-598.2-1117.6-939.3-328.47-372.4-581.51-788.4-752.1-1236.2-170.42-446.7-265.12-925.9-281.4-1424.4-9.74-245.5-2.83-492.1 20.53-732.6 19.56-243 57.73-486 113.39-721.7 121.51-511.54 327.37-946.84 611.88-1293.8 291.29-359.64 691.74-643 1157.9-819.18 409.18-156.57 889.38-244.66 1427-261.78 70.57-2.03 141.16-3.13 211.66-3.13 185.1 0 356.05 7.35 522.62 22.44 226.68 20.01 465.56 53.46 730.15 102.16 404.19 74.41 813.99 175.33 1210.4 272.8l243.5 59.8c468.4 113.65 969 229.73 1484.9 289.76 219.4 25.56 433.2 38.53 635.4 38.53 315.2 0 616.9-31.58 896.6-93.64 265.3-58.24 511.3-155.47 731.5-288.98 118.2-75.12 224.5-158.83 315.4-248.41 94.4-94.11 177.9-201.51 248.1-318.76 133.2-222.46 215.7-485.72 238.4-761.41 11.1-135.47 8.7-269.76-7.1-399.2-8.6-69.41-20.6-134.75-36.6-199.48-19.4-71.6-37.6-132.64-77.4-206.28-21.4-39.63-62.8-64.25-107.9-64.25" fill="#5e422c"/></g><g transform="matrix(.14546 0 0 -.14546 5.8899 3275.7)"><path d="m15687 9993.8c-15.8 0-31.7 2.66-47.1 7.95-74.8 26-114.5 108-88.6 182.9 17.3 50.7 414.3 1247.9-474.3 2088.2-414 391.3-1043.5 589.7-1871.1 589.7-734.9 0-1459.7-151.7-1939.3-252-69.7-14.7-133.2-27.9-189.3-39.2-457.1-91.4-880.4-137.7-1258.4-137.7h-0.19c-937.87 0-1427.1 277-1672.4 509.3-318.5 301.8-487.29 754.6-463.12 1242.3 26.51 534.7 276.19 1035.2 667.9 1338.8 25.44 19.7 55.85 30.1 87.91 30.1 44.82 0 86.26-20.3 113.64-55.7 48.56-62.6 37.08-153-25.53-201.6-326.32-252.9-534.5-673.8-556.92-1125.9-20.02-403.8 116.21-775.3 373.74-1019.3 302.27-286.4 791.24-431.6 1453.3-431.6 461.58 0 920.18 72.4 1223.7 133.1 55.5 11.1 118 24.2 186.7 38.6 491 102.7 1232.8 258 1995.3 258 905.7 0 1602.6-224.8 2071.5-668.1 1025.4-969.6 568.4-2333.6 548.4-2391.2-20.1-57.8-74.5-96.65-135.8-96.65" fill="#5e422c"/></g><g transform="matrix(.14186 0 0 -.14186 5.8899 3275.7)"><path d="m7592.5 6411.6c-106.61 0-218.47 5.92-332.52 17.67-349.62 36.74-693.82 122.93-1023 256.11-330.12 131.49-638.15 308-915.64 524.55-296.24 234.13-536 500.21-712.42 790.72-95.56 158.19-173.37 322.2-231.13 487.52-56.26 160.82-96 337.51-118.15 525.21-48.16 364.86-43.53 719.85 13.66 1055.7 59.85 363.8 206.1 706 423.05 989.7 243.76 306.8 554.24 520.5 897.45 617.3 13.13 3.7 26.62 5.6 40.1 5.6 65.57 0 123.8-44.2 141.64-107.4 21.76-77.1-22.98-158.4-99.74-181.1-147.62-43.9-288.57-113.1-410.46-201.1-118.98-85.2-230.12-192.5-330.19-318.6-184.56-246.9-307.67-543.4-356.7-858.4-49.45-305.27-50.74-629.06-3.84-962.06 21.22-167.11 56.1-317.49 106.57-459.32 54.21-149.44 122.47-292.4 202.97-424.92 311.45-507.63 834.74-927.48 1473.6-1182.4 300.81-121.72 615.42-200.2 934.96-233.47 102.12-10.43 202.04-15.79 297.06-15.79 61.48 0 122.33 2.26 180.89 6.58 86.97 6.96 163.51 16.36 234.14 28.76 50.07 9.12 101.08 20.3 152.08 31.49 28.62 6.2 57.26 12.5 85.71 18.42 301.7 70.77 595.56 166.73 906.68 268.33 334.73 109.41 680.89 222.48 1037 301.14 456.8 106.87 935.1 161.01 1421.9 161.01 212 0 427-10.44 638.8-31.12 612.9-58.08 1252.7-178.48 2013.4-378.77 107-27.82 212.9-57.24 318-86.47 223.8-62.31 435.2-121.05 648.1-162.69 163-31.96 327.4-47.56 502.5-47.56 148.1 0 299.4 11.18 462.3 34.12 9.1 1.22 13.2 1.5 17.2 1.5 42.6 0 79.4-31.95 85.3-74.25 6.2-43.7-21.5-84.87-64.6-95.87-23.7-5.92-47.3-12.31-71-18.6-59.3-15.79-120.5-32.24-182-41.83l-131.9-23.69-131-14.28c-67-5.27-135.5-7.99-202.5-7.99-112.1 0-221.7 7.61-325.9 22.56-275.4 38.44-536.9 106.77-789.9 172.84-70.3 18.33-140.2 36.65-210 54.14-734.1 190.04-1376.6 308.09-1964.1 360.73-195.1 17.85-391.8 26.97-584.7 26.97-470.6 0-934.3-53.67-1378.4-159.5-327.48-75.66-653.62-179.8-957.18-281.02l-85.67-28.48c-289-96.24-587.83-195.59-896.8-268.81-28.73-5.92-58.18-12.31-87.65-18.7-55.78-12.13-111.53-24.25-169.3-34.68-81.93-14.38-169.7-25.1-268.04-32.8-65.2-4.61-132.75-7.05-200.62-7.05" fill="#5e422c"/></g><g transform="matrix(.17002 0 0 -.17002 5.8899 3275.7)"><path d="m13466 2653.3c-1555.4-0.07-3153 721.02-4219.4 1263.5-607.46 308.98-1061 570.05-1425.3 779.83-688.58 396.26-1067.7 614.36-1624.4 670.98-67.44 6.9-116.75 67.36-109.88 134.73 6.39 63.05 58.89 110.49 122.09 110.49 4.17 0 8.4-0.15 12.67-0.54 609.07-61.96 1028-303.19 1722.2-702.67 362.23-208.52 813-467.94 1414.1-773.63 1643.9-836.14 2988.7-1242.6 4111.4-1242.6 406.6 0 773.4 52.31 1154.4 164.61 728.6 214.65 1208.4 704.79 1316.3 1344.7 101.4 602.52-156.8 1206.2-674 1575.7-343.8 245.54-809.8 370.08-1384.9 370.08-806.1 0-1657.9-238.41-2221.5-396.19-114.1-31.92-216.5-60.55-304.8-83.44-10.2-2.67-20.7-4.08-31.1-4.08-55.8 0-104.7 37.95-118.7 92.22-17 65.64 22.5 132.85 88.1 149.79 86.4 22.5 186.5 50.5 297.9 81.64 578.4 161.94 1448.7 405.44 2288.3 405.44 629.1 0 1143.7-139.83 1529.6-415.41 594.3-424.49 890.7-1120.6 773.5-1816.6-122.2-725.32-678.9-1300.9-1489.3-1539.7-380.2-111.99-793.1-168.77-1227.2-168.77" fill="#5e422c"/></g><path d="m1237.9 2846c-32.037 0-65.011-1.0266-97.993-3.0666-283.12-17.48-504.31-137.4-577.24-312.99-80.968-194.91-16.696-370.11 84.879-435.99 3.3987-2.2134 7.3227-3.3734 11.348-3.3734 7.128 0 13.691 3.56 17.557 9.52 6.272 9.68 3.5053 22.64-6.1573 28.92-112.88 73.213-123.74 253.19-69.032 384.88 66.767 160.73 274.15 270.83 541.22 287.31 31.88 1.96 63.735 2.96 94.676 2.96 175.39 0 304.93-31.653 409.01-57.093 79.64-19.44 148.39-36.227 219.08-36.227 24.16 0 46.96 1.96 69.707 5.9866 11.347 2 18.933 12.88 16.933 24.227-1.7733 10-10.453 17.24-20.627 17.24-1.1866 0-2.4-0.093-3.6266-0.3067-20.467-3.6266-41-5.4-62.787-5.4-65.067 0-131.63 16.267-208.71 35.08-106.37 25.987-238.71 58.32-418.23 58.32" fill="#5e422c"/><g transform="matrix(.14433 0 0 -.14433 5.8899 3275.7)"><path d="m13885 15961c-61.1 0-115.5 41-132.4 99.8-11.2 39.1-4.6 81.1 18.2 115.4 22.4 33.2 52.3 57.4 78.4 76.7 25.2 17.7 57.1 37.3 97.4 44.5 8.2 1.5 16.4 2.2 24.5 2.2 66.9 0 124.1-47.9 135.9-113.9 5.5-30.9 0.6-61.8-14.2-89.4-19.2-36-47.6-60.4-72.9-79.4-25.8-18.5-58-39.5-96.6-50.5-12.6-3.6-25.4-5.4-38.3-5.4" fill="#5e422c"/></g><g transform="matrix(.14498 0 0 -.14498 5.8899 3275.7)"><path d="m14619 15988c-9.7 0-19.1 0.9-28.3 2.7-32.5 6.4-56.2 23.7-75.2 39.8-18.6 16.7-40.2 38.4-53.9 67.7-16 34.4-17.6 72.8-4.7 108.4 13 35.6 39 64 73.3 80 18.9 8.8 38.9 13.2 59.7 13.2 14.8 0 29.5-2.3 43.6-6.8 31-9.9 55.1-28.6 74.6-45.6 17.6-16.2 37.8-37.7 48.2-69.1 25.1-75.8-16-157.9-91.8-183-14.5-4.9-29.9-7.3-45.5-7.3" fill="#5e422c"/></g><g transform="matrix(.14039 0 0 -.14039 5.8899 3275.7)"><path d="m13656 15598c-196.5 0-418 14.5-658.1 43.1-499.4 59.5-924.3 200.9-1265.8 314.5-64.4 21.4-126.6 42.1-186.8 61.5-36.9 11.9-67 37.4-84.7 71.9-17.7 34.4-21 73.7-9 110.7 19.4 60.3 74.8 100.8 138 100.8 15.2 0 30.1-2.4 44.5-7 60.2-19.3 122.4-40 186.6-61.4 92.1-30.7 183-64.7 279.3-100.7 274.5-102.9 585.6-219.5 935.6-261.1 228.2-27.2 437.5-40.9 622.1-40.9 544.7 0 892 115.4 1032.7 343 4.9 8.2 10.5 18.3 16.6 29.2 31.5 56.9 55.5 92.6 78.1 96.6 8.4 1.5 16.8 2.3 25.2 2.3 32.5 0 64.4-11.2 90-31.3 18.7-14.6 40.2-33.4 63.4-53.6 86.7-75.2 184.5-160.1 263.6-160.1 4.6 0 9.1 0.3 13.5 0.9 23.7 3.1 47.9 5.5 71 5.5 88.2 0 104.3-35.1 108.4-65.6 9.7-73.8-126.5-162.5-214-174.2-16.5-2.2-32.2-3.2-47-3.2-95.4 0-159.5 41.2-233.7 88.9-22.3 14.4-44.4 28.6-68.1 42.2l-15 8.6-12.1-12.4c-226.9-234.3-611-348.2-1174.3-348.2" fill="#5e422c"/></g></g></svg>
