<?xml version="1.0" encoding="UTF-8"?>
<!--
     Copyright (c) 2022 Irina Mir
     This work is licensed under the Creative Commons Attribution-NonCommercial-ShareAlike
     4.0 International License. To view a copy of this license, see the LICENSE file in this
     directory, or visit http://creativecommons.org/licenses/by-nc-sa/4.0/ or send a letter
     to Creative Commons, PO Box 1866, Mountain View, CA 94042, USA.
-->
<!-- Generator: Adobe Illustrator 26.0.2, SVG Export Plug-In . SVG Version: 6.00 Build 0)  -->
<svg width="473.62" height="204.2" version="1.1" viewBox="0 0 473.62 204.2" xml:space="preserve" xmlns="http://www.w3.org/2000/svg" xmlns:cc="http://creativecommons.org/ns#" xmlns:dc="http://purl.org/dc/elements/1.1/" xmlns:rdf="http://www.w3.org/1999/02/22-rdf-syntax-ns#">
<style type="text/css">
	.st0{fill:#351905;}
	.st1{fill:#D19F69;}
	.st2{fill:#EAC598;}
	.st3{fill:#976343;}
	.st4{fill:#F9A83D;}
	.st5{fill:#FFD05C;}
	.st6{fill:#FFFFFE;}
	.st7{fill:#683C23;}
	.st8{opacity:0.8;fill:#351905;}
</style>
<g transform="translate(-65.08 -195.17)">
	<path class="st0" d="m229.4 339.6c-0.16-6.01-2.71-11.38-6.69-14.12 0.28-1.12 0.36-2.2 0.44-3.33l0.01-0.17c0.47-12.17-6.68-21.77-17.79-23.88-1.2-0.21-2.41-0.37-3.69-0.48 0.54-3.86 1.02-14.41-7.92-21.42-11.69-9.17-30.92-3.25-40.17-0.4-0.65 0.2-1.24 0.38-1.77 0.54-6.85 2.04-19.31 4.7-25.82-0.42-2.38-1.87-2.87-5.03-2.86-7.35 0.02-5.29 2.56-11.37 6.1-14.67 3.1 2.22 7.44 3.61 13.22 4.24 2.44 0.34 4.92 0.24 7.32 0.15 0.81-0.03 1.62-0.06 2.42-0.08h0.02c2.7 0 5.37 0.59 7.96 1.16 2.47 0.55 5.03 1.12 7.67 1.19 12.57 0.51 20.01-4.18 21.52-13.58 1.03-7.07-1.86-12.69-9.06-17.7-1.78-1.31-3.19-2.48-4.42-3.67-0.5-1.26-1.15-2.4-1.94-3.38-2.53-3.31-7.11-5.01-11.43-4.27-12.5-4.86-30.78-3.24-42.6 3.79-21.26 13.06-32.13 37.47-27.05 60.75 0.96 5 2.56 9.63 4.74 13.76-6.55 3.4-12.15 12.06-8.76 26.57 0.48 2.07 1.28 4.04 2.37 5.89-6.14 5.49-8.91 17.25-2.42 29.55 5.8 10.97 20.63 17.36 40.71 17.53 0.65 0.01 1.3 0.01 1.94 0.01 8.08 0 15.39-0.42 22.32-1.27 6.01 3.16 13.63 4.83 22.05 4.83 10.03 0 20.84-2.42 28.91-6.46 8.16-4.09 13.38-9.65 14.73-15.66 2.68-1.32 10.25-5.98 9.94-17.65z"/>
	<path class="st1" d="m220.58 326.11c-1.55-0.9 1.71-1.23-0.01-1.72l0.08-0.74c1.72-3.78 2.3-22.42-19.13-24.25-0.84-0.07-1.68-0.11-2.53-0.13l0.58-0.38s3.26-13.23-6.96-21.24c-11.76-9.23-32.74-1.8-40.28 0.45-7.55 2.25-20.41 4.82-27.47-0.74-5.56-4.37-5.73-15.17 3.96-27.16 2.44 2.69 6.08 4.89 11.25 5.68 4.64 0.71 7.04 0.61 10.27 0.39 2.47-0.17 4.95 0.08 7.34 0.73 4.68 1.27 10.1 2.95 16.87 1.51 10.85-2.32 15.19-12.05 12.35-17.97-2.26-4.72-3-6.35-12.68-13.04-1.33-5.06-4.35-9.28-14.01-8.48-6.69-3.71-22.12-4.49-35.84 3.4-12.09 6.95-36.34 27.5-29.73 59.81 1.26 6.16 3.21 11.15 5.65 15.19l-0.47-0.16c-5.33 2.04-12.93 9.29-9.22 25.15 0.66 2.81 1.84 5.33 3.39 7.57l-1-0.38c-5.94 4.69-8.78 16.12-2.6 27.81 5.64 10.68 20.58 15.01 39.1 16.55 8.33 0.69 16.38-0.03 24.04-1.52 33.44 14.3 64.87-6.85 64.28-16.5 8.44-3.83 15.4-16.85 2.77-29.83z"/>
	<path class="st2" d="m213.91 355.78c-6.42 9.08-32.8 22.6-57.44 16.58-2.28 0.76-0.13-0.53-2.47 0.25 33.21 13.89 64.3-7.02 63.82-16.64-1.31-0.13-2.62-0.2-3.91-0.19z"/>
	<path class="st3" d="m125.06 252.59c-4.59-0.32-10.14 1.17-10.27 6.44-0.06 2.39 3.05 6.29 5.03 7.45 1.81 1.06 1.66-0.55 2.63-3.07 0.14-0.36 0.18-0.72 0.17-1.07 0.12-0.14 0.23-0.29 0.33-0.46 1.02-1.85 2.02-3.7 3.08-5.52 1.29-2.21 1.39-3.6-0.97-3.77z"/>
	<path class="st3" d="m128.19 220.15c1.88 2.88 8.4 6.27 11.93 3.77 2.62-1.86 6.19-6.04 6.19-7.1 0-1.57-7.31-0.09-9.25 0.47-0.27 0.08-0.51 0.21-0.72 0.38-0.14-0.01-0.28-0.01-0.42 0.01-1.56 0.23-3.12 0.47-4.68 0.65-1.89 0.24-4.01 0.33-3.05 1.82z"/>
	<path class="st3" d="m107.44 236.45c6.79 0.75 10.04 0.92 12.08-3.32 1.89-3.93 2.54-7.73 1.66-9.21-0.8-1.35-2.86 1.81-4.4 3.1-0.22 0.18-0.38 0.4-0.5 0.64-0.13 0.05-0.26 0.11-0.38 0.18-1.33 0.84-2.66 1.69-4.02 2.49-1.65 0.98-6.2 5.93-4.44 6.12z"/>
	<path class="st3" d="m98.69 298.08c-1.81 5.43-0.81 15.1 2.21 16.51s11.47-3.22 12.68-4.23l1.81 0.4s3.82 12.08 10.27 14.49c4.3 1.61 14.69-11.27 14.69-11.27l3.62-1.01s10.93 11.05 15.7 10.06c6.84-1.41 11.88-16.3 12.68-18.32l3.02-1.21s10.29 10.35 15.5 9.86c6.44-0.6 10.67-13.49 10.67-13.49s-6.04-1.41-13.69 0-30.8 11.88-47.3 14.29-35.43-6.24-40.26-14.9z"/>
	<path class="st3" d="m121.24 271.51c-0.67-0.31-0.18-1.32-0.91-0.94-4.04 2.09-4.89 12.47-1.51 14.83 4.63 3.22 13.51-2.79 14.66-3.92-3.55-0.18-6.16-2.7-8.4-5.41-1.16-1.4-1.9-3.64-3.84-4.56z"/>
	<path class="st3" d="m149.34 290.83c5.29-0.75 9.91-10.85 11.34-14.05-7.4 2.37-16.22 4.9-23.84 4.99 1.47 1.64 8.83 9.58 12.5 9.06z"/>
	<path class="st2" d="m187.39 357.08c-13.55 5.2-28.78 10.15-57 9.92-18.58-0.15-33.46-5.87-39.1-16.55-2.33-4.42-3.38-8.79-3.46-12.78-1.63 5.48-1.24 12.55 2.55 19.73 5.64 10.68 20.52 16.4 39.1 16.55 28.21 0.23 43.51-4.53 57-9.92 10.53-4.21 23.92-8.78 31.32-8.11 0 0 10.29-4.15-3.58-5.1-8.84-0.6-18.91 3.22-26.83 6.26z"/>
	<path class="st3" d="m175.31 273.04c-2.07 0.25-5.51 1.37-9.68 2.74 1.64 2.09 7.84 9.65 11.66 9.53 5.48-0.17 9.6-11.54 9.6-11.54s-5.03-1.52-11.58-0.73z"/>
	<path class="st3" d="m137.44 344.68c5.74 6.34 9.17 10.1 13.99 9.76 5.84-0.4 10.47-8.56 14.09-13.08l5.84-2.42s11.12 7.48 15.9 6.34c8.05-1.91 12.68-17.21 12.68-17.21l3.32-0.6s9.76 8.86 13.39 7.85c4.45-1.24 4.43-7.85 4.43-7.85s-2.52-3.93-14.09-0.5c-11.57 3.42-41.77 16.51-52.34 15.9-10.57-0.6-25.36 3.93-37.44-0.3s-23.21-12.61-23.21-12.61-1.85 6.27-0.03 11.4 8 2.26 12.68-1.51l4.23 1.51s1.31 9.26 6.14 12.28 14.87-8.59 14.87-8.59z"/>
	<path class="st3" d="m206.16 300.67c-0.83-0.11-1.79-0.2-2.84-0.3 0.91 2.35 4.26 10.48 7 10.88 3.94 0.58 6.55-5.02 6.55-5.02s-0.39-4.24-10.71-5.56z"/>
	<path class="st2" d="m125.06 336.83c-10.12-1.51-25.77-4.4-31.6-17.61-2.52-5.11-1.9-11.56-2.21-11.15-0.58 0.74-1.82 13.16-0.64 14.32 3.71 15.86 25.84 20.92 38.92 21.56 41.72 2.05 64.96-17.04 82.61-18.63-21.85-4.04-33.21 9.08-68.05 11.66-4.08 0.31-14.8 0.48-19.03-0.15z"/>
	<path class="st2" d="m212.13 325.33c2.47 0.18 4.88 0.34 7.21 0.49-2.31-0.59-4.7-0.72-7.21-0.49z"/>
	<path class="st2" d="m179.56 248.49c-10.65 4.31-17.12 4.13-25.58 0.35-10.68-2.39-16.39 4.65-28.26-6.91 0.37 2.97 1.16 6.14 2.47 9.06 0.21-0.27 0.41-0.54 0.63-0.81 2.44 2.69 6.08 4.89 11.25 5.68 4.64 0.71 7.04 0.61 10.27 0.39 2.47-0.17 4.95 0.08 7.34 0.73 4.68 1.27 10.1 2.95 16.87 1.51 5.43-1.16 9.61-5.13 11.23-8.09-1.32-1-6.22-2.42-6.22-1.91z"/>
	<ellipse class="st0" transform="matrix(.412 -.9112 .9112 .412 -113.37 309.53)" cx="183.16" cy="242.61" rx="1.48" ry="1.9"/>
	<path class="st2" d="m100.3 297.4-0.47-0.16c-0.17 0.06-0.34 0.13-0.51 0.21 4.79 5.56 10.3 10.25 17.28 13.16 22.11 7.97 52.76-5.72 73.58-11.65-3.32-3.32-22.58 1.48-29.49 3.15-19.99 5.64-40.21 9.31-54.23-6.88-10.22-11.81-14.03-34.7-3.54-51.9-7.61 8.85-12.09 20.19-8.27 38.88 1.26 6.15 3.21 11.15 5.65 15.19z"/>
	<path class="st0" d="m154.69 246.92c0.74 0.09 1.28 0.43 1.86 0.75 1.76 0.94 3.59 1.72 5.52 2.25 3.87 1.06 8.07 0.94 11.94-0.08 1.33-0.33 2.57-0.92 3.82-1.47 1.79-0.73 3.82-0.63 5.64-0.2 0.92 0.15 1.88 0.15 2.78-0.03 0.55-0.11 1.08 0.24 1.19 0.79 0.11 0.56-0.26 1.11-0.83 1.2-1.48 0.26-3.09 0.1-4.51-0.27-1.36-0.28-2.78-0.14-4.02 0.44-5.12 2.44-10.98 2.74-16.5 1.73-2.15-0.41-4.29-1.05-6.24-2.07-0.66-0.32-1.31-0.7-1.75-1.35-0.55-0.75 0.18-1.87 1.1-1.69z"/>
	<path class="st0" d="m228.87 339.61c-0.16-6.11-2.8-11.36-6.78-13.91 0.37-1.26 0.44-2.44 0.53-3.75 0.44-11.35-5.87-21.16-17.36-23.35-1.41-0.25-2.81-0.41-4.2-0.52 0.57-3.48 1.49-14.32-7.64-21.48-11.47-9-30.53-3.13-39.69-0.32-0.65 0.2-1.25 0.38-1.77 0.54-6.94 2.07-19.59 4.75-26.29-0.51-2.54-2-3.07-5.32-3.06-7.76 0.02-5.61 2.82-12.05 6.58-15.34 3.73 2.83 8.98 3.92 13.33 4.39 3.2 0.45 6.46 0.12 9.66 0.06 5.35 0 10.3 2.2 15.66 2.35 9.68 0.39 19.24-2.24 20.98-13.14 1.12-7.74-2.81-13-8.86-17.2-1.63-1.2-3.15-2.43-4.56-3.8-0.46-1.19-1.09-2.34-1.91-3.35-2.54-3.32-7.01-4.8-11.07-4.05-12.66-4.99-30.67-3.21-42.27 3.69-20.48 12.58-32 36.42-26.81 60.2 0.94 4.89 2.56 9.72 4.94 14.08-6.49 3.09-12.4 11.55-8.97 26.22 0.52 2.22 1.39 4.26 2.54 6.11-6.12 5.14-9.09 16.97-2.63 29.2 5.7 10.8 20.37 17.09 40.25 17.25 0.65 0.01 1.3 0.01 1.94 0.01 8.57 0 15.95-0.48 22.42-1.29 6.41 3.41 14.14 4.84 21.95 4.84 10.45 0 21.01-2.57 28.67-6.41 8.17-4.1 13.29-9.6 14.51-15.55 5.08-2.25 10.16-7.87 9.91-17.21zm-114.15-110.29c8.61-7.61 19.42-10.91 30.8-11.02 5.5-0.03 11.21 0.6 16.27 2.75 0.24 0.11 0.51 0.14 0.78 0.08 4.58-1.03 9.03 1.54 10.52 5.97 0.06 0.18 0.17 0.35 0.31 0.49 2.93 3.03 6.87 5.13 9.59 8.2 2.66 2.85 3.79 6.86 3.16 10.71-1.54 9.38-10.02 10.98-18.15 10.65-4.18-0.12-8.28-1.66-12.44-2.16-4.23-0.62-8.5 0.35-12.73-0.19-8.25-0.71-16.3-3.68-17.19-13.05-0.02-0.18-0.15-0.33-0.33-0.37-0.23-0.05-0.47 0.09-0.52 0.33-0.49 2.15-0.34 4.55 0.59 6.71 0.49 1.14 1.13 2.14 1.9 3.02-4.24 3.84-7.25 10.83-7.27 17.12-0.02 4.33 1.39 7.73 4.06 9.82 3.27 2.57 11.34 6.12 28.65 0.96 0.53-0.16 1.14-0.34 1.8-0.55 8.73-2.69 26.91-8.28 37.31-0.13 7.53 5.91 7.25 14.78 6.77 18.35-0.07 0.55-0.55 0.95-1.1 0.95-17.53 0.03-33.92 9.71-50.95 13.08-16.26 3.29-35.22 1.75-44.72-13.65-4.42-7.09-6.46-15.54-6.99-23.83-1.14-16.92 7.01-33.5 19.88-44.24zm-15.69 69.71c0.34-0.17 0.74-0.04 0.95 0.27 3.14 4.77 7.3 8.8 12.62 11.43 10.63 5.35 23.08 5.07 34.46 2.87 8.48-1.73 16.65-4.83 24.76-7.58 16.4-5.86 44.42-12.42 48.01 11.77 0.21 1.78 0.31 3.71 0.07 5.53-0.09 0.66-0.73 1.1-1.38 0.97-8.12-1.56-16.96 1.91-28.01 6.26-15.19 5.98-34.09 13.42-60.93 12.1-3.77-0.18-13.5-1.04-22.51-4.97-8.53-3.72-13.64-8.96-15.19-15.58-1.92-8.24-1.1-18.95 7.15-23.07zm104.25 71.03c-11.76 5.9-30.62 8.67-44.62 3.23 12.13-1.94 20.82-5.05 28.31-8.04 7.77-3.11 20.15-8.05 27.78-8.24 0.75-0.02 1.27 0.74 0.99 1.43-1.73 4.36-6.05 8.41-12.46 11.62zm19.75-19.64c-1.89 2.47-4.85 3.95-7.96 3.96-7.39 0.04-18.35 4.15-29.07 8.43-12.2 4.88-27.64 10.07-56.5 9.82-18.88-0.16-32.71-5.93-37.95-15.85-5.52-10.45-3.56-20.43 1.2-25.23 0.33-0.33 0.86-0.3 1.16 0.05 7.75 9.03 22.86 13.05 35.54 13.67 27.41 1.34 46.6-6.21 62.02-12.28 11.11-4.37 19.89-7.82 27.5-5.91 4.19 1.43 7.11 6.49 7.27 12.6 0.1 3.51-0.79 7.57-3.21 10.74z"/>
	<ellipse class="st0" transform="matrix(.9112 -.412 .412 .9112 -84.65 93.706)" cx="175" cy="243.17" rx="2.09" ry="1.52"/>
	<path class="st4" d="m157.86 234.64c-0.44 4.52-2.88 5.48-6.42 5.48-3.55 0-6.2-0.95-6.42-5.48-0.24-4.75 2.47-8.18 6.42-8.22 3.54-0.04 6.89 3.33 6.42 8.22z"/>
	<path class="st5" d="m157.06 236.66c-0.38 2.85-2.52 3.46-5.62 3.46-3.11 0-5.42-0.6-5.62-3.46-0.21-3 2.17-5.16 5.62-5.19 3.1-0.03 6.03 2.1 5.62 5.19z"/>
	<path class="st0" d="m151.43 240.89c-3.09 0-7.24-0.33-7.54-6.19-0.14-2.86 0.51-5.88 2.25-7.73 1.45-1.54 3.14-2.19 5.3-2.22 2.1-0.02 3.96 0.81 5.47 2.45 1.77 1.93 2.32 4.83 2.06 7.55-0.56 5.75-4.33 6.14-7.54 6.14zm0.07-13.3h-0.05c-1.4 0.02-2.64 0.55-3.57 1.54-1.21 1.29-1.81 3.22-1.7 5.44 0.16 3.24 1.54 4.38 5.26 4.38 3.14 0 4.9-0.71 5.27-4.43 0.2-2.06-0.37-3.93-1.59-5.27-0.99-1.06-2.3-1.66-3.62-1.66z"/>
	<path class="st0" d="m152.99 233.48c0 2.14-0.61 3.65-1.79 3.65s-2.5-1.51-2.5-3.65 1.59-3.8 2.78-3.8 1.51 1.65 1.51 3.8z"/>
	<ellipse class="st6" transform="matrix(.7885 -.615 .615 .7885 -109.78 140.26)" cx="149.05" cy="229.75" rx="2.42" ry="1.76"/>
	<path class="st0" d="m261.3 249.18c0-3.46 2.68-6.32 6.13-6.52 9.63-0.57 22.81-0.43 32.56-0.43 15.08 0 24.36 1.49 32.36 6.14 7.66 4.07 13.04 11.53 13.04 21.57 0 9.62-5.64 18.7-17.97 23.27v0.41c12.49 3.28 21.78 12.81 21.78 26.82 0 10.02-4.61 17.84-11.38 23.24-8.02 6.44-21.23 9.96-43.02 9.96-9.12 0-18.92 0.29-27.12 0.08-3.55-0.09-6.39-2.98-6.39-6.53v-98.01zm31.28 37.3h8.02c13.11 0 19.95-5.44 19.95-13.57 0-8.31-6.3-12.69-17.48-12.69-5.41 0-8.46 0.34-10.49 0.76zm0 48.41c2.37 0.4 5.31 0.45 9.49 0.45 11.23 0 21.11-4.34 21.11-15.87 0-10.95-9.81-15.33-22.15-15.34h-8.45z"/>
	<path class="st0" d="m274.45 354.8c-2.35 0-4.63-0.02-6.78-0.07-4.13-0.1-7.36-3.41-7.36-7.53v-98.01c0-3.98 3.11-7.29 7.08-7.52 8.11-0.48 18.51-0.46 27.68-0.43 1.72 0 3.37 0.01 4.94 0.01 16.08 0 24.99 1.7 32.86 6.27 8.59 4.57 13.54 12.75 13.54 22.44 0 10.33-5.99 18.74-16.53 23.36 12.61 4.15 20.34 14.37 20.34 27.14 0 9.58-4.07 17.89-11.76 24.02-8.65 6.94-22.51 10.18-43.64 10.18-3.38 0-6.85 0.04-10.31 0.08-3.35 0.02-6.77 0.06-10.06 0.06zm14.8-111.58c-7.53 0-15.37 0.06-21.76 0.44-2.91 0.17-5.19 2.6-5.19 5.52v98.01c0 3.03 2.38 5.46 5.41 5.53 5.13 0.13 10.78 0.06 16.76 0 3.46-0.04 6.94-0.08 10.33-0.08 20.65 0 34.12-3.09 42.39-9.74 5.02-4 11.01-11.15 11.01-22.46 0-12.54-8.06-22.45-21.03-25.85-0.44-0.12-0.75-0.51-0.75-0.97v-0.41c0-0.42 0.26-0.79 0.65-0.94 11-4.08 17.31-12.22 17.31-22.33 0-8.92-4.56-16.46-12.51-20.69-7.56-4.39-16.2-6.02-31.89-6.02-1.57 0-3.23 0-4.94-0.01h-5.79zm12.82 93.12c-4.07 0-7.14-0.03-9.66-0.46-0.48-0.08-0.83-0.5-0.83-0.99v-30.76c0-0.55 0.45-1 1-1h8.45c14.71 0.01 23.15 5.97 23.15 16.34 0.01 10.56-8.26 16.87-22.11 16.87zm-8.49-2.31c2.22 0.28 4.97 0.31 8.49 0.31 6.05 0 20.11-1.45 20.11-14.87 0-12.46-13.25-14.33-21.15-14.34h-7.45zm7.02-46.55h-8.02c-0.55 0-1-0.45-1-1v-25.5c0-0.47 0.33-0.88 0.8-0.98 2.59-0.53 5.99-0.78 10.69-0.78 11.92 0 18.48 4.86 18.48 13.69 0 9.12-7.83 14.57-20.95 14.57zm-7.02-2h7.02c12.04 0 18.95-4.58 18.95-12.57 0-9.66-8.96-11.69-16.48-11.69-4.02 0-7.14 0.19-9.49 0.59z"/>
	<path class="st0" d="m439.57 311.98c0 29.04-20.57 42.31-41.87 42.31-23.12 0-41.03-15.28-41.03-40.94 0-25.64 16.92-42.09 42.45-42.09 24.29 0 40.45 16.73 40.45 40.72zm-57.44 0.81c0 13.56 5.73 23.85 16.26 23.85 9.63 0 15.73-9.64 15.73-23.98 0-11.72-4.52-23.76-15.71-23.76-11.79 0-16.28 12.11-16.28 23.89z"/>
	<path class="st0" d="m397.7 355.29c-25.14 0-42.03-16.85-42.03-41.94 0-26.18 17.06-43.09 43.45-43.09 24.79 0 41.45 16.77 41.45 41.72 0 13.72-4.59 25.05-13.28 32.79-7.62 6.78-18.13 10.52-29.59 10.52zm1.42-83.03c-25.18 0-41.45 16.13-41.45 41.09 0 23.89 16.09 39.94 40.03 39.94 28.24 0 40.87-20.75 40.87-41.31 0-23.76-15.85-39.72-39.45-39.72zm-0.74 65.38c-10.48 0-17.26-9.75-17.26-24.85 0-18.35 8.92-24.89 17.28-24.89 12.33 0 16.71 13.34 16.71 24.76 0 15.18-6.57 24.98-16.73 24.98zm0.03-47.74c-11.26 0-15.28 11.82-15.28 22.89 0 13.88 5.99 22.85 15.26 22.85 8.95 0 14.73-9.02 14.73-22.98-0.01-10.5-3.86-22.76-14.71-22.76z"/>
	<path class="st0" d="m499.57 352.5c-2.02 0-3.76-1.44-4.12-3.43l-0.82-4.47h-0.53c-5.18 6.33-13.29 9.68-22.69 9.68-16.18 0-25.68-11.62-25.68-24.31 0-20.7 18.52-30.51 46.63-30.47v-1.01c0-4.22-2.27-10.26-14.55-10.23-6.57 0-13.41 1.81-18.59 4.19-1.77 0.82-3.85-0.14-4.39-2.02l-2.51-8.73c-0.58-2.01 0.42-4.13 2.33-4.99 6.05-2.73 15.55-5.45 27.59-5.45 26.45 0 34.82 15.63 34.82 34.29v27.71c0 5.33 0.2 10.47 0.62 14.6 0.25 2.48-1.69 4.64-4.18 4.64zm-6.48-37.57c-13-0.07-23.04 3.06-23.04 12.52 0 6.4 4.19 9.51 9.81 9.51 6.04 0 11.16-4.03 12.78-9.13 0.38-1.28 0.46-2.82 0.46-4.22v-8.68z"/>
	<path class="st0" d="m471.41 355.29c-17.52 0-26.68-12.73-26.68-25.31 0-7.85 2.58-14.41 7.68-19.5 7.72-7.71 21.18-11.84 38.95-11.97v-0.02c0-1.66-0.4-4.03-2.28-5.91-2.21-2.21-5.98-3.33-11.19-3.33-5.95-0.02-12.56 1.48-18.25 4.1-1.11 0.51-2.38 0.51-3.49 0s-1.95-1.48-2.28-2.66l-2.51-8.73c-0.72-2.5 0.49-5.1 2.88-6.18 4.58-2.07 14.31-5.54 28-5.54 29.61 0 35.82 19.19 35.82 35.29v27.71c0 5.52 0.21 10.54 0.61 14.5 0.15 1.47-0.33 2.94-1.32 4.03-0.98 1.09-2.39 1.71-3.86 1.71h-13.92c-2.5 0-4.65-1.79-5.11-4.25l-0.54-2.92c-5.32 5.81-13.25 8.98-22.51 8.98zm20.78-54.79c-17.65 0-30.92 3.94-38.38 11.39-4.71 4.7-7.09 10.79-7.09 18.09 0 11.58 8.48 23.31 24.68 23.31 9.21 0 17-3.31 21.92-9.32 0.19-0.23 0.47-0.37 0.77-0.37h0.53c0.48 0 0.9 0.34 0.98 0.82l0.82 4.46c0.28 1.51 1.6 2.61 3.14 2.61h13.92c0.92 0 1.76-0.37 2.37-1.05 0.62-0.68 0.91-1.57 0.81-2.49-0.41-4.03-0.62-9.12-0.62-14.71v-27.71c0-22.09-11.38-33.29-33.82-33.29-13.32 0-22.75 3.36-27.18 5.37-1.48 0.67-2.23 2.27-1.79 3.81l2.51 8.73c0.18 0.62 0.61 1.12 1.19 1.39s1.24 0.27 1.82 0c5.92-2.72 12.84-4.29 19-4.29h0.08c5.76 0 10 1.32 12.6 3.91 2.37 2.36 2.87 5.29 2.87 7.32v1.01c0 0.27-0.11 0.52-0.29 0.71s-0.44 0.29-0.71 0.29c-0.02 0.01-0.07 0.01-0.13 0.01zm-12.34 37.46c-6.67 0-10.81-4.03-10.81-10.51 0-3.2 1.07-5.88 3.19-7.99 3.69-3.67 10.57-5.54 20.43-5.54h0.43c0.55 0 0.99 0.45 0.99 1v8.69c0 1.91-0.16 3.34-0.5 4.5-1.84 5.81-7.49 9.85-13.73 9.85zm12.24-22.03c-9 0.07-15.21 1.73-18.45 4.95-1.75 1.74-2.6 3.89-2.6 6.57 0 5.41 3.21 8.51 8.81 8.51 5.38 0 10.25-3.47 11.83-8.43 0.37-1.26 0.41-2.84 0.41-3.92z"/>
	<path class="st7" d="m261.3 247.18c0-3.46 2.68-6.32 6.13-6.52 9.63-0.57 22.81-0.43 32.56-0.43 15.08 0 24.36 1.49 32.36 6.14 7.66 4.07 13.04 11.53 13.04 21.57 0 9.62-5.64 18.7-17.97 23.27v0.41c12.49 3.28 21.78 12.81 21.78 26.82 0 10.02-4.61 17.84-11.38 23.24-8.02 6.44-21.23 9.96-43.02 9.96-9.12 0-18.92 0.29-27.12 0.08-3.55-0.09-6.39-2.98-6.39-6.53v-98.01zm31.28 37.3h8.02c13.11 0 19.95-5.44 19.95-13.57 0-8.31-6.3-12.69-17.48-12.69-5.41 0-8.46 0.34-10.49 0.76zm0 48.41c2.37 0.4 5.31 0.45 9.49 0.45 11.23 0 21.11-4.34 21.11-15.87 0-10.95-9.81-15.33-22.15-15.34h-8.45z"/>
	<path class="st7" d="m439.57 309.98c0 29.04-20.57 42.31-41.87 42.31-23.12 0-41.03-15.28-41.03-40.94 0-25.64 16.92-42.09 42.45-42.09 24.29 0 40.45 16.73 40.45 40.72zm-57.44 0.81c0 13.56 5.73 23.85 16.26 23.85 9.63 0 15.73-9.64 15.73-23.98 0-11.72-4.52-23.76-15.71-23.76-11.79 0-16.28 12.11-16.28 23.89z"/>
	<path class="st7" d="m499.57 350.5c-2.02 0-3.76-1.44-4.12-3.43l-0.82-4.47h-0.53c-5.18 6.33-13.29 9.68-22.69 9.68-16.18 0-25.68-11.62-25.68-24.31 0-20.7 18.52-30.51 46.63-30.47v-1.01c0-4.22-2.27-10.26-14.55-10.23-6.57 0-13.41 1.81-18.59 4.19-1.77 0.82-3.85-0.14-4.39-2.02l-2.51-8.73c-0.58-2.01 0.42-4.13 2.33-4.99 6.05-2.73 15.55-5.45 27.59-5.45 26.45 0 34.82 15.63 34.82 34.29v27.71c0 5.33 0.2 10.47 0.62 14.6 0.25 2.48-1.69 4.64-4.18 4.64zm-6.48-37.57c-13-0.07-23.04 3.06-23.04 12.52 0 6.4 4.19 9.51 9.81 9.51 6.04 0 11.16-4.03 12.78-9.13 0.38-1.28 0.46-2.82 0.46-4.22v-8.68z"/>
	<path class="st8" d="m272.61 338.55-4.6 7.25c-1.02 1.61-1.23 3.59-0.66 5.36 5.54-0.02 11.09 0.08 16.62-0.44 0.64-0.06 1.21-0.01 1.72 0.12 0.45-1.69 0.2-3.52-0.76-5.03l-4.6-7.25c-0.08-0.13-0.17-0.27-0.27-0.41-0.95-1.41-0.95-3.25 0-4.66 0.03-0.04 0.05-0.07 0.07-0.11 0.07-0.09 0.13-0.17 0.19-0.27l4.6-7.25c0.66-1.04 0.98-2.22 0.98-3.41s-0.32-2.38-0.98-3.41l-4.6-7.25c-0.08-0.13-0.17-0.27-0.27-0.41-0.47-0.7-0.71-1.51-0.71-2.32s0.24-1.62 0.71-2.32c0.09-0.14 0.18-0.28 0.27-0.41l4.6-7.25c0.66-1.04 0.98-2.22 0.98-3.41s-0.32-2.38-0.98-3.41l-4.6-7.25c-0.06-0.09-0.13-0.18-0.19-0.27-0.03-0.04-0.05-0.07-0.07-0.11-0.95-1.41-0.95-3.25 0-4.66 0.09-0.14 0.18-0.28 0.27-0.41l4.6-7.25c1.31-2.06 1.31-4.73 0-6.8l-4.6-7.25c-0.08-0.13-0.17-0.27-0.27-0.41-0.95-1.41-0.95-3.25 0-4.66 0.09-0.14 0.18-0.28 0.27-0.41l4.6-7.25c0.86-1.35 1.13-2.97 0.86-4.5-4.24 1.28-9.14 1.12-13.38-0.12-1.45 0.27-2.86 0.48-4.19 0.48-0.4 0-0.77-0.05-1.13-0.12-0.2 1.46 0.11 2.98 0.92 4.26l4.6 7.25c0.08 0.13 0.17 0.27 0.27 0.41 0.95 1.41 0.95 3.25 0 4.66-0.09 0.14-0.18 0.28-0.27 0.41l-4.6 7.25c-1.31 2.06-1.31 4.73 0 6.8l4.6 7.25c0.08 0.13 0.17 0.27 0.27 0.41 0.95 1.41 0.95 3.25 0 4.66-0.03 0.04-0.05 0.07-0.07 0.11-0.07 0.09-0.13 0.17-0.19 0.27l-4.6 7.25c-0.66 1.04-0.98 2.22-0.98 3.41s0.32 2.38 0.98 3.41l4.6 7.25c0.08 0.13 0.17 0.27 0.27 0.41 0.47 0.7 0.71 1.51 0.71 2.32s-0.24 1.62-0.71 2.32c-0.09 0.14-0.18 0.28-0.27 0.41l-4.6 7.25c-0.66 1.04-0.98 2.22-0.98 3.41s0.32 2.38 0.98 3.41l4.6 7.25c0.06 0.09 0.13 0.18 0.2 0.27 0.02 0.04 0.05 0.07 0.07 0.11 0.95 1.41 0.95 3.25 0 4.66-0.11 0.13-0.2 0.27-0.28 0.4z"/>
	<path class="st3" d="m274.65 276.73-3.49-5.78c-0.76-1.26-0.76-2.83 0-4.08l3.91-6.48c0.64-1.05 2.16-1.05 2.8 0l3.91 6.48c0.76 1.26 0.76 2.83 0 4.08l-3.49 5.78c-0.83 1.37-2.81 1.37-3.64 0z"/>
	<path class="st3" d="m272.59 240.9c-0.67 0.13-1.34 0.25-1.99 0.34-0.24 0.84-0.14 1.77 0.31 2.52l4.17 6.9c0.64 1.05 2.16 1.05 2.8 0l4.17-6.9c0.37-0.61 0.51-1.35 0.41-2.06-3.29 0.48-6.77 0.15-9.87-0.8z"/>
	<path class="st3" d="m275.07 304.2-3.91-6.48c-0.76-1.26-0.76-2.83 0-4.08l3.91-6.48c0.64-1.05 2.16-1.05 2.8 0l3.91 6.48c0.76 1.26 0.76 2.83 0 4.08l-3.91 6.48c-0.64 1.05-2.16 1.05-2.8 0z"/>
	<path class="st3" d="m275.07 330.97-3.91-6.48c-0.76-1.26-0.76-2.83 0-4.08l3.91-6.48c0.64-1.05 2.16-1.05 2.8 0l3.91 6.48c0.76 1.26 0.76 2.83 0 4.08l-3.91 6.48c-0.64 1.06-2.16 1.06-2.8 0z"/>
	<path class="st3" d="m271.1 351.15c3.64 0 7.28-0.03 10.92-0.3l0.02-0.03c0.6-1 0.6-2.25 0-3.24l-4.17-6.9c-0.64-1.05-2.16-1.05-2.8 0l-4.17 6.9c-0.6 1-0.6 2.25 0 3.24z"/>
	<path class="st0" d="m329.87 291.31c10.54-4.62 16.53-13.04 16.53-23.36 0-9.68-4.95-17.87-13.54-22.44-7.87-4.57-16.78-6.27-32.86-6.27-1.57 0-3.22 0-4.94-0.01-9.17-0.02-19.57-0.04-27.68 0.43-3.97 0.23-7.08 3.54-7.08 7.52v98.01c0 4.12 3.23 7.43 7.36 7.53 2.15 0.05 4.44 0.07 6.78 0.07 3.29 0 6.7-0.04 10.05-0.08 3.45-0.04 6.93-0.08 10.31-0.08 21.13 0 35-3.23 43.64-10.18 7.69-6.13 11.76-14.44 11.76-24.02 0.01-12.75-7.72-22.97-20.33-27.12zm-45.4 58.41c-3.33 0.04-6.78 0.08-10.02 0.08-2.55 0-4.74-0.02-6.71-0.07-2.49-0.06-4.44-2.05-4.44-4.53v-98.01c0-2.4 1.87-4.39 4.25-4.53 6.55-0.39 14.69-0.44 21.8-0.44 1.95 0 3.86 0 5.7 0.01 1.72 0 3.37 0.01 4.94 0.01 15.49 0 23.99 1.59 31.35 5.87 0.02 0.01 0.04 0.02 0.07 0.04 7.61 4.05 11.98 11.27 11.98 19.81 0 9.67-6.07 17.47-16.66 21.4-0.78 0.29-1.3 1.04-1.3 1.88v0.41c0 0.91 0.61 1.7 1.49 1.93 12.7 3.33 20.29 12.63 20.29 24.88 0 10.91-5.78 17.81-10.63 21.68-8.09 6.49-21.36 9.52-41.77 9.52-3.4-0.02-6.93 0.02-10.34 0.06z"/>
	<path class="st0" d="m325.19 317.47c0-11.01-8.8-17.33-24.15-17.34h-8.45c-1.1 0-2 0.9-2 2v30.76c0 0.98 0.7 1.81 1.67 1.97 2.59 0.44 5.71 0.47 9.82 0.47 14.46 0.01 23.11-6.67 23.11-17.86zm-31.61-14.34h7.45c7.9 0.01 21.15 1.88 21.15 14.34 0 13.42-14.07 14.87-20.11 14.87-3.52 0-6.26-0.02-8.49-0.31z"/>
	<path class="st0" d="m292.58 286.48h8.02c20.36 0 21.95-11.92 21.95-15.57 0-9.34-7.1-14.69-19.48-14.69-4.77 0-8.23 0.25-10.89 0.8-0.93 0.19-1.6 1.01-1.6 1.96v25.5c0 1.11 0.9 2 2 2zm1-3v-23.67c2.35-0.4 5.46-0.59 9.49-0.59 7.52 0 16.48 2.03 16.48 11.69 0 7.99-6.91 12.57-18.95 12.57z"/>
	<path class="st0" d="m399.12 268.26c-26.4 0-43.45 16.91-43.45 43.09 0 25.08 16.89 41.94 42.03 41.94 11.46 0 21.97-3.74 29.59-10.52 8.69-7.74 13.28-19.07 13.28-32.79 0-24.96-16.66-41.72-41.45-41.72zm26.17 72.27c-7.07 6.29-16.87 9.76-27.6 9.76-23.34 0-39.03-15.65-39.03-38.94 0-24.35 15.88-40.09 40.45-40.09 23 0 38.45 15.56 38.45 38.72 0.01 12.83-4.24 23.4-12.27 30.55z"/>
	<path class="st0" d="m398.4 284.9c-13.49 0-18.28 13.95-18.28 25.89 0 15.7 7.17 25.85 18.26 25.85 10.77 0 17.73-10.2 17.73-25.98 0-19.01-9.54-25.76-17.71-25.76zm14.71 25.76c0 13.96-5.78 22.98-14.73 22.98-9.27 0-15.26-8.97-15.26-22.85 0-11.06 4.01-22.89 15.28-22.89 10.86 0 14.71 12.26 14.71 22.76z"/>
	<path class="st0" d="m518.67 345.76c-0.4-3.96-0.61-8.98-0.61-14.5v-27.71c0-16.1-6.21-35.29-35.82-35.29-13.69 0-23.42 3.47-28 5.54-2.39 1.08-3.6 3.68-2.88 6.18l2.51 8.73c0.34 1.18 1.17 2.15 2.28 2.66s2.38 0.51 3.49 0c5.66-2.61 12.29-4.1 18.17-4.1h0.08c5.21 0 8.98 1.12 11.19 3.33 1.88 1.88 2.28 4.25 2.28 5.91v0.02c-17.77 0.13-31.23 4.26-38.95 11.97-5.1 5.09-7.68 11.65-7.68 19.5 0 12.58 9.17 25.31 26.68 25.31 9.26 0 17.19-3.17 22.52-8.96l0.54 2.92c0.45 2.46 2.6 4.25 5.11 4.25h13.92c1.47 0 2.87-0.62 3.86-1.71 0.98-1.11 1.46-2.58 1.31-4.05zm-59.17-39.07c7.58-4.7 18.88-7.19 32.69-7.19h0.16c0.53 0 1.04-0.21 1.41-0.58 0.38-0.38 0.59-0.88 0.59-1.42v-1.01c0-3.68-1.6-12.23-16.47-12.23h-0.08c-6.3 0-13.38 1.6-19.42 4.38-0.16 0.07-0.32 0.11-0.49 0.11-0.43 0-0.97-0.27-1.14-0.87l-2.51-8.73c-0.3-1.06 0.22-2.16 1.23-2.62 4.36-1.97 13.64-5.28 26.77-5.28 21.78 0 32.82 10.86 32.82 32.29v27.71c0 5.62 0.22 10.74 0.63 14.81 0.06 0.63-0.13 1.24-0.56 1.71-0.42 0.47-1 0.72-1.63 0.72h-13.92c-1.06 0-1.96-0.75-2.16-1.79l-0.82-4.47c-0.17-0.95-1-1.64-1.97-1.64h-0.53c-0.6 0-1.17 0.27-1.55 0.73-4.73 5.77-12.24 8.95-21.15 8.95-15.55 0-23.68-11.22-23.68-22.31 0-9.25 3.97-16.42 11.78-21.27z"/>
	<path class="st0" d="m479.85 336.96c6.67 0 12.71-4.33 14.7-10.56 0.37-1.26 0.54-2.78 0.54-4.78v-8.69c0-1.1-0.89-1.99-1.99-2h-0.44c-20.35 0-24.62 7.9-24.62 14.52 0 6.99 4.64 11.51 11.81 11.51zm12.24-23.03v7.69c0 1.08-0.04 2.66-0.41 3.92-1.58 4.96-6.44 8.43-11.83 8.43-5.6 0-8.81-3.1-8.81-8.51 0-2.68 0.85-4.83 2.6-6.57 3.24-3.23 9.44-4.9 18.45-4.96z"/>
</g>
<metadata>
	<rdf:RDF>
		<cc:Work rdf:about="">
			<cc:license rdf:resource="http://creativecommons.org/licenses/by-nc-sa/4.0/"/>
			<dc:creator>
				<cc:Agent>
					<dc:title>Irina Mir</dc:title>
				</cc:Agent>
			</dc:creator>
		</cc:Work>
		<cc:License rdf:about="http://creativecommons.org/licenses/by-nc-sa/4.0/">
			<cc:permits rdf:resource="http://creativecommons.org/ns#Reproduction"/>
			<cc:permits rdf:resource="http://creativecommons.org/ns#Distribution"/>
			<cc:requires rdf:resource="http://creativecommons.org/ns#Notice"/>
			<cc:requires rdf:resource="http://creativecommons.org/ns#Attribution"/>
			<cc:prohibits rdf:resource="http://creativecommons.org/ns#CommercialUse"/>
			<cc:permits rdf:resource="http://creativecommons.org/ns#DerivativeWorks"/>
			<cc:requires rdf:resource="http://creativecommons.org/ns#ShareAlike"/>
		</cc:License>
	</rdf:RDF>
</metadata>
</svg>
